<?xml version="1.0" encoding="utf-8"?>
<svg width="20" version="1.1" id="Capa_1" xmlns="http://www.w3.org/2000/svg" xmlns:xlink="http://www.w3.org/1999/xlink" x="0px" y="0px"
	 viewBox="16 180.8 374 357.2" style="enable-background:new 16 180.8 374 357.2;" xml:space="preserve">
<style type="text/css">
	.st0{fill:#EC5483;}
</style>
<g>
	<g>
		<path class="st0" d="M325.4,225.4v16.4h48.2v65.1H32.4v-65.2l51.1,0.1v-16.3L16,225.4v292c0,11.4,9.2,20.6,20.6,20.6h332.8
			c11.4,0,20.6-9.2,20.6-20.6v-292H325.4z M365,521.6H42c-11.4,0-9.6-9.2-9.6-20.6V323.3h341.2V501
			C373.6,512.4,376.4,521.6,365,521.6z"/>
	</g>
</g>
<g>
	<g>
		<rect x="157.7" y="225.4" class="st0" width="94.3" height="16.4"/>
	</g>
</g>
<rect x="55.9" y="361.3" class="st0" width="46.9" height="38.9"/>
<rect x="177.4" y="361.3" class="st0" width="46.9" height="38.9"/>
<rect x="299.9" y="361.3" class="st0" width="46.9" height="38.9"/>
<rect x="55.4" y="442.5" class="st0" width="46.9" height="37.9"/>
<rect x="176.9" y="442.5" class="st0" width="46.9" height="37.9"/>
<rect x="299.4" y="442.5" class="st0" width="46.9" height="37.9"/>
<g>
	<g>
		<path class="st0" d="M288.3,182c-15.3,0-36.4,12.5-36.4,27.9V276c0,15.4,21.1,27.9,36.4,27.9c15.4,0,37.2-8,37.2-27.9v-66.2
			C325.5,194.5,303.7,182,288.3,182z M311.6,276c0,7.6-15.5,13.9-23.3,13.9c-7.6,0-22.4-6.2-22.4-13.9v-66.2
			c0-7.6,14.7-13.9,22.4-13.9c7.6,0,23.3,6.2,23.3,13.9V276z"/>
	</g>
</g>
<g>
	<g>
		<path class="st0" d="M120.5,180.8c-15.3,0-36.4,12.5-36.4,27.9v66.2c0,15.4,21.1,27.9,36.4,27.9c15.4,0,37.2-8,37.2-27.9v-66.2
			C157.7,193.3,135.8,180.8,120.5,180.8z M143.7,274.9c0,7.6-15.5,13.9-23.3,13.9c-7.6,0-22.4-6.2-22.4-13.9v-66.2
			c0-7.6,14.7-13.9,22.4-13.9c7.6,0,23.3,6.2,23.3,13.9V274.9z"/>
	</g>
</g>
</svg>
